<?xml version="1.0" standalone="no"?>
<!DOCTYPE svg PUBLIC "-//W3C//DTD SVG 20010904//EN"
 "http://www.w3.org/TR/2001/REC-SVG-20010904/DTD/svg10.dtd">
<svg version="1.0" xmlns="http://www.w3.org/2000/svg"
 width="512.000000pt" height="512.000000pt" viewBox="0 0 512.000000 512.000000"
 preserveAspectRatio="xMidYMid meet">

<g transform="translate(0.000000,512.000000) scale(0.100000,-0.100000)"
fill="#000000" stroke="none">
<path d="M2514 4541 c-1236 -268 -1660 -363 -1686 -379 -46 -28 -63 -71 -63
-154 0 -52 5 -73 21 -94 30 -41 65 -64 102 -67 17 -1 32 -4 32 -7 0 -3 -168
-298 -373 -655 l-372 -650 -89 -3 -89 -3 6 -58 c37 -350 356 -638 805 -728
132 -26 376 -24 512 6 432 93 748 383 777 714 l6 67 -74 0 -74 0 -391 683
c-216 375 -391 683 -390 684 1 1 265 58 586 128 322 69 593 128 603 131 16 5
17 -86 17 -1813 l0 -1819 -97 -11 c-250 -31 -490 -132 -594 -251 l-33 -37 899
-3 c494 -1 901 1 904 4 3 3 -23 33 -59 66 -124 115 -363 206 -592 225 l-68 6
0 1857 0 1856 542 117 c297 64 542 116 544 114 2 -1 -146 -262 -328 -580
l-331 -577 -73 0 -74 0 0 -43 c0 -24 9 -79 20 -122 73 -286 345 -519 715 -611
140 -35 378 -44 526 -19 268 44 475 148 637 320 63 66 92 107 127 178 44 89
74 197 75 265 l0 32 -87 0 -88 0 -357 622 -356 621 41 21 c60 30 82 74 82 162
-1 51 -6 79 -18 98 -28 41 -76 66 -127 65 -25 -1 -788 -162 -1696 -358z m1870
-676 l315 -550 -325 -3 c-179 -1 -468 -1 -643 0 l-318 3 320 558 c176 307 324
554 328 550 4 -4 149 -255 323 -558z m-2990 -780 l315 -550 -641 -3 c-353 -1
-643 -1 -645 1 -2 2 142 257 319 566 201 351 324 557 329 549 4 -7 149 -260
323 -563z"/>
</g>
</svg>
