<?xml version="1.0" standalone="no"?>
<!DOCTYPE svg PUBLIC "-//W3C//DTD SVG 20010904//EN"
 "http://www.w3.org/TR/2001/REC-SVG-20010904/DTD/svg10.dtd">
<svg version="1.0" xmlns="http://www.w3.org/2000/svg"
 width="1024.000000pt" height="1024.000000pt" viewBox="0 0 1024.000000 1024.000000"
 preserveAspectRatio="xMidYMid meet">

<g transform="translate(0.000000,1024.000000) scale(0.100000,-0.100000)"
fill="#000000" stroke="none">
<path d="M3278 8788 c496 -594 811 -1130 920 -1563 45 -181 55 -279 49 -472
-6 -183 -24 -287 -78 -446 -62 -185 -231 -498 -384 -713 l-47 -65 -57 84
c-240 351 -588 708 -812 831 -57 31 -179 80 -179 72 0 -2 20 -45 44 -97 139
-300 163 -606 71 -924 -26 -91 -45 -132 -237 -505 -227 -443 -364 -884 -419
-1345 -17 -140 -17 -491 0 -615 36 -270 98 -476 206 -695 83 -166 165 -288
281 -413 305 -331 752 -547 1294 -626 215 -31 662 -47 685 -24 4 3 -118 213
-271 465 -152 252 -278 461 -280 464 -2 3 24 2 58 -3 119 -16 254 26 319 99
17 21 44 62 58 93 24 50 26 66 26 180 0 145 -18 213 -91 340 -104 182 -201
407 -258 600 -103 352 -114 713 -27 963 29 83 88 191 131 239 l37 42 35 -54
c94 -147 254 -317 757 -800 140 -135 302 -297 360 -360 333 -364 521 -681 575
-970 20 -102 21 -285 2 -382 -53 -277 -242 -561 -545 -819 -60 -51 -108 -95
-107 -97 2 -1 92 29 200 68 804 289 1405 639 1831 1065 391 391 617 834 680
1334 21 162 16 489 -9 644 -56 350 -164 670 -345 1022 -86 168 -213 378 -268
443 l-28 34 6 -129 c8 -166 -5 -408 -30 -553 -51 -296 -161 -540 -319 -711
-41 -43 -77 -79 -82 -79 -4 0 -10 80 -14 178 -29 741 -139 1320 -358 1872
-262 661 -690 1225 -1248 1644 -437 329 -950 570 -1516 714 -249 64 -586 122
-704 122 l-39 0 127 -152z"/>
</g>
</svg>
