<?xml version="1.0" standalone="no"?>
<!DOCTYPE svg PUBLIC "-//W3C//DTD SVG 20010904//EN"
 "http://www.w3.org/TR/2001/REC-SVG-20010904/DTD/svg10.dtd">
<svg version="1.0" xmlns="http://www.w3.org/2000/svg"
 width="1024.000000pt" height="1024.000000pt" viewBox="0 0 1024.000000 1024.000000"
 preserveAspectRatio="xMidYMid meet">

<g transform="translate(0.000000,1024.000000) scale(0.100000,-0.100000)"
fill="#000000" stroke="none">
<path d="M4955 9029 c-263 -247 -405 -357 -660 -510 -509 -306 -1113 -503
-1760 -574 -130 -15 -540 -34 -716 -35 l-76 0 -22 -229 c-64 -668 -43 -1288
65 -1936 304 -1829 1246 -3323 2713 -4305 182 -121 239 -156 455 -281 146 -85
172 -97 190 -87 269 141 649 386 926 596 1196 911 2002 2201 2328 3727 131
609 190 1281 164 1837 -9 187 -49 669 -56 674 0 1 -149 6 -331 13 -181 6 -393
18 -470 26 -529 60 -1039 206 -1477 425 -345 172 -606 353 -878 608 -69 65
-148 138 -175 164 l-50 46 -170 -159z m331 -479 c125 -106 281 -217 441 -317
160 -98 505 -271 678 -339 501 -196 1055 -310 1606 -331 l167 -6 5 -36 c3 -20
11 -147 18 -284 28 -534 -31 -1201 -157 -1772 -349 -1582 -1188 -2838 -2484
-3717 -143 -97 -391 -251 -425 -264 -17 -7 -256 135 -445 264 -338 229 -577
427 -881 731 -234 235 -375 394 -533 606 -545 728 -911 1571 -1101 2535 -103
524 -150 1130 -126 1607 7 131 14 259 18 284 l5 46 167 6 c1085 41 2110 432
2836 1080 l50 45 36 -32 c20 -17 76 -65 125 -106z"/>
<path d="M5014 8172 c-655 -523 -1550 -853 -2471 -910 -73 -5 -136 -12 -140
-16 -5 -4 -8 -191 -7 -414 0 -308 4 -447 17 -572 62 -597 179 -1116 362 -1605
361 -963 929 -1737 1740 -2370 115 -91 487 -343 566 -384 l47 -25 73 44 c573
338 1137 844 1544 1385 543 723 908 1630 1049 2606 52 360 60 486 61 921 0
223 -3 410 -8 414 -4 4 -67 11 -140 16 -788 48 -1570 301 -2187 705 -123 81
-333 238 -364 272 -11 12 -22 21 -26 21 -3 0 -55 -39 -116 -88z"/>
</g>
</svg>
